<svg fill="#000000" xmlns="http://www.w3.org/2000/svg"  viewBox="0 0 48 48" width="24px" height="24px"><path d="M 11.5 6 C 8.4802259 6 6 8.4802259 6 11.5 L 6 36.5 C 6 39.519774 8.4802259 42 11.5 42 L 36.5 42 C 39.519774 42 42 39.519774 42 36.5 L 42 11.5 C 42 8.4802259 39.519774 6 36.5 6 L 11.5 6 z M 11.5 9 L 36.5 9 C 37.898226 9 39 10.101774 39 11.5 L 39 36.5 C 39 37.898226 37.898226 39 36.5 39 L 11.5 39 C 10.101774 39 9 37.898226 9 36.5 L 9 11.5 C 9 10.101774 10.101774 9 11.5 9 z M 13.5 12 A 1.50015 1.50015 0 1 0 13.5 15 C 24.287343 15 33 23.712657 33 34.5 A 1.50015 1.50015 0 1 0 36 34.5 C 36 22.091343 25.908657 12 13.5 12 z M 13.5 20 A 1.50015 1.50015 0 1 0 13.5 23 C 19.869415 23 25 28.130585 25 34.5 A 1.50015 1.50015 0 1 0 28 34.5 C 28 26.509415 21.490585 20 13.5 20 z M 16 28 A 4 4 0 0 0 16 36 A 4 4 0 0 0 16 28 z"/></svg>